<?xml version="1.0" encoding="UTF-8"?>
<svg xmlns="http://www.w3.org/2000/svg" xmlns:xlink="http://www.w3.org/1999/xlink" width="150px" height="150px" viewBox="0 0 75 75" version="1.1">
<g id="surface1">
<path style=" stroke:none;fill-rule:nonzero;fill:rgb(0%,0%,0%);fill-opacity:1;" d="M 71.792969 11.820312 C 71.628906 11.398438 71.226562 11.117188 70.773438 11.105469 L 64.128906 10.949219 L 64.28125 4.304688 C 64.289062 3.851562 64.027344 3.4375 63.609375 3.253906 C 63.195312 3.070312 62.710938 3.15625 62.382812 3.46875 L 54.445312 11.054688 C 54.230469 11.257812 54.105469 11.539062 54.097656 11.835938 L 53.925781 18.933594 L 51.960938 20.898438 C 46.742188 16.0625 39.765625 13.097656 32.109375 13.097656 C 15.984375 13.097656 2.867188 26.21875 2.867188 42.34375 C 2.867188 58.460938 15.984375 71.578125 32.109375 71.578125 C 48.230469 71.578125 61.347656 58.460938 61.347656 42.34375 C 61.347656 34.683594 58.382812 27.703125 53.546875 22.484375 L 55.273438 20.753906 L 62.777344 20.929688 C 62.785156 20.929688 62.792969 20.929688 62.800781 20.929688 C 63.089844 20.929688 63.367188 20.820312 63.574219 20.621094 L 71.519531 13.039062 C 71.851562 12.726562 71.957031 12.246094 71.792969 11.820312 Z M 59.105469 42.34375 C 59.105469 57.226562 46.992188 69.335938 32.105469 69.335938 C 17.21875 69.335938 5.109375 57.226562 5.109375 42.34375 C 5.109375 27.453125 17.21875 15.339844 32.105469 15.339844 C 39.148438 15.339844 45.5625 18.050781 50.375 22.484375 L 46.226562 26.632812 C 42.480469 23.261719 37.53125 21.207031 32.109375 21.207031 C 20.457031 21.207031 10.980469 30.6875 10.980469 42.34375 C 10.980469 53.992188 20.457031 63.46875 32.109375 63.46875 C 43.761719 63.46875 53.242188 53.992188 53.242188 42.34375 C 53.242188 36.917969 51.183594 31.964844 47.8125 28.214844 L 51.960938 24.066406 C 56.390625 28.878906 59.105469 35.300781 59.105469 42.34375 Z M 38.855469 42.339844 C 38.855469 46.058594 35.828125 49.085938 32.109375 49.085938 C 28.386719 49.085938 25.359375 46.058594 25.359375 42.339844 C 25.359375 38.617188 28.386719 35.589844 32.109375 35.589844 C 33.5625 35.589844 34.910156 36.058594 36.015625 36.84375 L 31.3125 41.546875 C 30.875 41.984375 30.875 42.691406 31.3125 43.128906 C 31.53125 43.347656 31.820312 43.457031 32.105469 43.457031 C 32.394531 43.457031 32.679688 43.347656 32.898438 43.128906 L 37.601562 38.429688 C 38.386719 39.535156 38.855469 40.882812 38.855469 42.339844 Z M 37.613281 35.246094 C 36.089844 34.0625 34.183594 33.347656 32.109375 33.347656 C 27.148438 33.347656 23.117188 37.382812 23.117188 42.339844 C 23.117188 47.296875 27.148438 51.328125 32.109375 51.328125 C 37.066406 51.328125 41.097656 47.296875 41.097656 42.339844 C 41.097656 40.261719 40.382812 38.355469 39.199219 36.832031 L 46.222656 29.804688 C 49.191406 33.144531 51 37.535156 51 42.34375 C 51 52.757812 42.523438 61.230469 32.105469 61.230469 C 21.691406 61.230469 13.21875 52.757812 13.21875 42.34375 C 13.21875 31.925781 21.691406 23.449219 32.105469 23.449219 C 36.910156 23.449219 41.300781 25.257812 44.636719 28.222656 Z M 62.363281 18.679688 L 57.464844 18.5625 L 61.015625 15.011719 C 61.457031 14.574219 61.457031 13.863281 61.015625 13.425781 C 60.578125 12.988281 59.871094 12.988281 59.433594 13.425781 L 56.222656 16.632812 L 56.328125 12.355469 L 59.964844 8.882812 L 61.976562 6.960938 L 61.863281 12.019531 C 61.847656 12.640625 62.339844 13.152344 62.957031 13.167969 L 68.015625 13.285156 Z M 62.363281 18.679688 "/>
</g>
</svg>
